<?xml version="1.0" encoding="UTF-8" standalone="no"?>
<!-- Created with Inkscape (http://www.inkscape.org/) -->

<svg
   xmlns:dc="http://purl.org/dc/elements/1.1/"
   xmlns:cc="http://creativecommons.org/ns#"
   xmlns:rdf="http://www.w3.org/1999/02/22-rdf-syntax-ns#"
   xmlns:svg="http://www.w3.org/2000/svg"
   xmlns="http://www.w3.org/2000/svg"
   xmlns:sodipodi="http://sodipodi.sourceforge.net/DTD/sodipodi-0.dtd"
   xmlns:inkscape="http://www.inkscape.org/namespaces/inkscape"
   width="210mm"
   height="297mm"
   id="svg3635"
   version="1.1"
   inkscape:version="0.48.4 r9939"
   sodipodi:docname="nous-contribuons.svg">
  <defs
     id="defs3637" />
  <sodipodi:namedview
     id="base"
     pagecolor="#ffffff"
     bordercolor="#666666"
     borderopacity="1.0"
     inkscape:pageopacity="0.0"
     inkscape:pageshadow="2"
     inkscape:zoom="0.31035156"
     inkscape:cx="-150.34603"
     inkscape:cy="191.06265"
     inkscape:document-units="px"
     inkscape:current-layer="layer1"
     showgrid="false"
     inkscape:window-width="1883"
     inkscape:window-height="1056"
     inkscape:window-x="37"
     inkscape:window-y="24"
     inkscape:window-maximized="1" />
  <metadata
     id="metadata3640">
    <rdf:RDF>
      <cc:Work
         rdf:about="">
        <dc:format>image/svg+xml</dc:format>
        <dc:type
           rdf:resource="http://purl.org/dc/dcmitype/StillImage" />
        <dc:title></dc:title>
      </cc:Work>
    </rdf:RDF>
  </metadata>
  <g
     inkscape:label="Calque 1"
     inkscape:groupmode="layer"
     id="layer1">
    <g
       id="g3582"
       transform="matrix(3.2868939,0,0,3.2868939,-913.25344,-1641.5568)"
       inkscape:export-filename="/home/lionel/Bureau/3-0/logos/nous-contribuons.png"
       inkscape:export-xdpi="90"
       inkscape:export-ydpi="90">
      <path
         inkscape:export-ydpi="300"
         inkscape:export-xdpi="300"
         inkscape:export-filename="/home/lionel/Bureau/SOCIETE_3-0_picto.png"
         sodipodi:nodetypes="sssssssss"
         id="path15-9-8-8"
         d="m 330.19036,655.2162 c 0,-2.45504 1.92138,-4.455 4.27736,-4.455 l 116.37733,0 c 0.57185,0 1.04075,0.49101 1.04075,1.0898 l 0,11.95185 c 0,2.45505 -1.92138,4.45502 -4.27736,4.45502 l -116.37733,0 c -0.57185,0 -1.04075,-0.49103 -1.04075,-1.08981 z"
         clip-rule="evenodd"
         inkscape:connector-curvature="0"
         style="fill:#000000;fill-opacity:1;fill-rule:evenodd" />
      <path
         inkscape:export-ydpi="300"
         inkscape:export-xdpi="300"
         inkscape:export-filename="/home/lionel/Bureau/SOCIETE_3-0_picto.png"
         id="path17-9-5-3"
         d="m 351.20233,661.64785 c -0.79881,-0.14525 -1.32787,-0.70544 -1.47312,-1.57686 -0.0519,-0.34235 -0.0414,-0.87143 0.0415,-1.17228 0.0934,-0.35272 0.26973,-0.67432 0.48758,-0.91292 0.33197,-0.34235 0.69507,-0.49796 1.21377,-0.5187 0.6017,-0.0311 1.08929,0.13486 1.43163,0.4772 0.19711,0.19711 0.3216,0.44609 0.3631,0.74694 l 0.0207,0.11411 h -0.43571 c -0.43571,0 -0.44608,0 -0.45645,-0.0623 -0.0623,-0.22823 -0.0934,-0.29048 -0.21786,-0.41497 -0.15561,-0.16597 -0.3216,-0.22822 -0.60169,-0.22822 -0.4461,0 -0.76769,0.35271 -0.87143,0.96479 -0.0519,0.31122 -0.0415,0.89217 0.0311,1.14115 0.10374,0.37346 0.32159,0.64319 0.58095,0.72619 0.20748,0.0726 0.5602,0.0415 0.72618,-0.0519 0.18674,-0.10373 0.3216,-0.31122 0.37347,-0.59131 l 0.0104,-0.0726 h 0.45647 c 0.24897,0 0.45645,0.0104 0.45645,0.0104 0,0 -0.0207,0.10374 -0.0415,0.21786 -0.11413,0.57057 -0.52908,0.97516 -1.15153,1.15152 -0.18674,0.0623 -0.74693,0.083 -0.94404,0.0519 l 0,0 z m 0.73657,0.82992 c 0.45645,-0.0623 0.93367,-0.2386 1.30714,-0.48758 0.25934,-0.17635 0.65356,-0.57057 0.81955,-0.81955 0.17636,-0.25935 0.30085,-0.54983 0.38384,-0.8818 0.0519,-0.20748 0.0623,-0.29047 0.0623,-0.73656 0,-0.42534 -0.0104,-0.52908 -0.0623,-0.70544 -0.30085,-1.0789 -1.07891,-1.85696 -2.13707,-2.13707 -0.20748,-0.0519 -0.29047,-0.0623 -0.73656,-0.0623 -0.53945,0 -0.69506,0.0311 -1.11003,0.19711 -0.7573,0.30085 -1.39012,0.99591 -1.65985,1.80509 -0.25936,0.76769 -0.15562,1.69098 0.25936,2.38605 0.61207,1.02703 1.71171,1.58724 2.87362,1.442 z m -0.7262,0.59133 c -0.61206,-0.083 -1.18264,-0.30085 -1.64948,-0.64319 -0.72618,-0.53946 -1.18264,-1.21377 -1.40049,-2.09557 -0.083,-0.3216 -0.083,-1.16191 -0.0104,-1.4835 0.32159,-1.37975 1.32788,-2.4068 2.64539,-2.71801 0.25936,-0.0623 0.3631,-0.0726 0.76769,-0.0726 0.38384,0 0.5187,0.0104 0.74693,0.0623 1.23453,0.25936 2.23044,1.17228 2.6039,2.35493 0.3216,1.03741 0.18674,2.14744 -0.39421,3.01886 -0.50833,0.76768 -1.41088,1.36938 -2.31343,1.53537 -0.26973,0.0519 -0.74693,0.0726 -0.99591,0.0415 l 0,0 z m 1.03742,1.27602 c 1.02704,-0.14525 1.89846,-0.56021 2.63502,-1.27602 0.49796,-0.4772 0.78843,-0.87142 1.05816,-1.45237 0.34235,-0.7262 0.47721,-1.39013 0.48758,-2.33417 0,-1.58725 -0.4772,-2.82177 -1.46274,-3.81768 -0.38385,-0.38384 -0.69507,-0.6017 -1.13078,-0.81955 -0.3631,-0.17636 -0.62244,-0.26973 -1.01666,-0.35272 -0.23861,-0.0519 -0.35272,-0.0623 -0.90255,-0.0623 -0.54983,0 -0.66394,0.0104 -0.89217,0.0623 -1.8051,0.40459 -3.14335,1.80509 -4.72022,4.9277 -0.19711,0.38384 -0.42534,0.85068 -0.50833,1.0374 l -0.15562,0.34236 0.19711,0.32159 c 1.23453,2.03332 2.79064,3.1641 4.75134,3.43383 0.38384,0.0415 1.28639,0.0415 1.65986,-0.0104 l 0,0 z m -14.02579,-2.70765 c -0.69506,-0.13487 -1.15152,-0.5602 -1.28639,-1.17227 -0.0207,-0.11412 -0.0414,-0.20749 -0.0414,-0.21786 0,-0.0104 0.20748,-0.0104 0.45646,-0.0104 h 0.45646 l 0.0104,0.0726 c 0.0623,0.26972 0.18673,0.47721 0.37347,0.59132 0.16599,0.0934 0.5187,0.12449 0.72618,0.0519 0.26973,-0.083 0.47721,-0.35273 0.58095,-0.73657 0.0726,-0.24898 0.0726,-1.00629 0,-1.26564 -0.14524,-0.54983 -0.44608,-0.82993 -0.85067,-0.82993 -0.2801,0 -0.44609,0.0623 -0.6017,0.22823 -0.12449,0.12449 -0.15561,0.18673 -0.21786,0.41497 -0.0207,0.0623 -0.0207,0.0623 -0.45646,0.0623 h -0.44608 l 0.0207,-0.12448 c 0.11411,-0.77806 0.81955,-1.25527 1.79472,-1.2034 0.5187,0.0207 0.88179,0.18673 1.21377,0.51871 0.35272,0.36309 0.52908,0.82993 0.5602,1.46275 0.0311,0.60169 -0.10374,1.1204 -0.37347,1.50424 -0.22822,0.3216 -0.5602,0.54983 -0.94404,0.65357 -0.20748,0.0311 -0.74694,0.0415 -0.97516,0 l 0,0 z m 1.04778,0.78844 c 1.49388,-0.33198 2.50016,-1.79472 2.27194,-3.29897 -0.19711,-1.27601 -1.19303,-2.28231 -2.44829,-2.46903 -0.32159,-0.0416 -0.89217,-0.0207 -1.18265,0.0519 -0.8818,0.22824 -1.63911,0.89218 -1.97107,1.70136 -0.17637,0.43571 -0.2075,0.59132 -0.2075,1.14115 0,0.42534 0.0104,0.52908 0.0519,0.72618 0.083,0.32161 0.21786,0.63283 0.39422,0.89218 0.16599,0.24898 0.56019,0.65357 0.81955,0.81955 0.35272,0.23861 0.85067,0.42534 1.27602,0.48758 0.24897,0.0311 0.72618,0.0104 0.9959,-0.0519 z m -0.92329,0.65356 c -1.06853,-0.11411 -2.07482,-0.71581 -2.65577,-1.59761 -0.50833,-0.75731 -0.68469,-1.69097 -0.48758,-2.63502 0.0623,-0.29048 0.17636,-0.65357 0.29047,-0.8818 0.20749,-0.41497 0.62245,-0.91292 0.99592,-1.20339 1.01666,-0.77806 2.38605,-0.94405 3.55831,-0.43571 0.70544,0.31121 1.36939,0.94404 1.73248,1.65985 0.40459,0.80918 0.47721,1.81547 0.18673,2.68689 -0.33197,0.99591 -1.17227,1.84659 -2.17855,2.20968 -0.39422,0.14525 -1.06854,0.23861 -1.44201,0.19711 l 0,0 z m 0.71582,1.8051 c 0.92329,-0.16599 1.70135,-0.59133 2.44829,-1.33826 0.8403,-0.8403 1.60797,-2.04371 2.60389,-4.03553 l 0.46684,-0.94405 -0.18674,-0.30085 c -0.90254,-1.48349 -2.0022,-2.51052 -3.29896,-3.03961 -1.25527,-0.5187 -2.81138,-0.58094 -4.05628,-0.17635 -1.18264,0.39422 -2.23043,1.30714 -2.75951,2.44829 -0.34234,0.72618 -0.48758,1.44199 -0.48758,2.3653 0,1.20338 0.26973,2.16818 0.86105,3.04997 0.77806,1.17228 1.84659,1.8466 3.1641,2.01258 0.28011,0.0311 0.9648,0.0104 1.2449,-0.0415 z m -0.78843,1.1204 c -1.25527,-0.16599 -2.30306,-0.67431 -3.2471,-1.55611 -1.04779,-0.97517 -1.70135,-2.24081 -1.92958,-3.73468 -0.0726,-0.45647 -0.0726,-1.82584 0,-2.31343 0.12449,-0.87142 0.31122,-1.49387 0.63282,-2.15781 0.86105,-1.7636 2.40679,-2.8425 4.33638,-3.01886 1.5976,-0.14524 3.00848,0.26972 4.14964,1.22414 0.81955,0.68469 1.61836,1.77397 2.27192,3.09148 0.10374,0.21785 0.19711,0.39422 0.20748,0.40459 0,0 0,0.0104 0.0103,0.0104 0.0104,0 0.0415,-0.0519 0.30085,-0.50834 0.87143,-1.54574 1.86733,-2.71802 2.87362,-3.39233 0.80918,-0.54983 1.71173,-0.86105 2.74915,-0.96479 0.3942,-0.0415 1.24489,-0.0207 1.58723,0.0415 1.22415,0.21786 2.19931,0.75731 3.14336,1.73248 0.85067,0.87142 1.39012,1.84659 1.65985,2.99811 0.11411,0.48758 0.15562,0.81955 0.16599,1.45238 0.0415,1.67022 -0.30086,3.03961 -1.04779,4.17039 -1.05815,1.60798 -2.63502,2.42753 -4.6476,2.42753 -0.93367,0 -1.75322,-0.18673 -2.52091,-0.58095 -0.96478,-0.48758 -1.75322,-1.26563 -2.61426,-2.5624 -0.23861,-0.35272 -0.60171,-0.96478 -0.77807,-1.30713 -0.0519,-0.0934 -0.0934,-0.16599 -0.10373,-0.15561 -0.0104,0.0103 -0.11412,0.17635 -0.22823,0.37346 -1.43163,2.41717 -3.01888,3.8073 -4.83433,4.23263 -0.58096,0.13487 -1.53538,0.17637 -2.13708,0.0934 l 0,0 z"
         clip-rule="evenodd"
         inkscape:connector-curvature="0"
         style="fill:#ffffff;fill-rule:evenodd" />
      <g
         transform="scale(0.97253625,1.0282393)"
         style="font-size:10.8429842px;font-style:normal;font-variant:normal;font-weight:normal;font-stretch:normal;text-align:start;line-height:125%;letter-spacing:0px;word-spacing:0px;text-anchor:start;fill:#ffffff;fill-opacity:1;stroke:none;font-family:Swis721 BT;-inkscape-font-specification:Swis721 BT"
         id="text4460-4-5-6-5-2-4-5-2">
        <path
           d="m 377.6985,645.21771 0,-3.48902 c 0,-0.55768 -0.0865,-0.94241 -0.25942,-1.15419 -0.16943,-0.2153 -0.46239,-0.32295 -0.87888,-0.32296 -0.53297,10e-6 -0.9477,0.15178 -1.24419,0.45532 -0.29296,0.30002 -0.43944,0.72711 -0.43943,1.28125 l 0,3.2296 -0.953,0 0,-5.67033 0.91064,0 0,0.82593 c 0.21883,-0.32825 0.47826,-0.57179 0.77828,-0.73063 0.30002,-0.15883 0.64768,-0.23824 1.043,-0.23825 0.42708,10e-6 0.7871,0.0653 1.08007,0.1959 0.29295,0.12707 0.51884,0.31943 0.67768,0.57709 0.0882,0.13766 0.15177,0.30002 0.1906,0.48709 0.0388,0.18354 0.0582,0.4765 0.0582,0.87887 l 0,0.27002 0,3.40431 -0.96359,0"
           style="fill:#ffffff;font-family:Swis721 BT;-inkscape-font-specification:Swis721 BT"
           id="path3753" />
        <path
           d="m 380.76927,642.37461 c 0,0.70239 0.15001,1.24066 0.45003,1.6148 0.30354,0.37061 0.73592,0.55591 1.29713,0.55591 0.55768,0 0.98476,-0.1853 1.28125,-0.55591 0.29649,-0.37414 0.44473,-0.91241 0.44473,-1.6148 0,-0.69886 -0.14824,-1.2336 -0.44473,-1.60422 -0.29649,-0.37413 -0.72357,-0.5612 -1.28125,-0.5612 -0.56474,0 -0.99712,0.18531 -1.29713,0.55591 -0.30002,0.37061 -0.45003,0.90712 -0.45003,1.60951 m -0.97417,0 c 0,-0.94947 0.23648,-1.68892 0.70945,-2.21837 0.4765,-0.52944 1.14359,-0.79416 2.00129,-0.79416 0.86123,0 1.53009,0.26472 2.00659,0.79416 0.47649,0.52592 0.71474,1.26537 0.71475,2.21837 -10e-6,0.95299 -0.23826,1.69421 -0.71475,2.22365 -0.47297,0.52945 -1.13831,0.79417 -1.996,0.79417 -0.86123,0 -1.53009,-0.26296 -2.00659,-0.78887 -0.47649,-0.52944 -0.71474,-1.27243 -0.71474,-2.22895"
           style="fill:#ffffff;font-family:Swis721 BT;-inkscape-font-specification:Swis721 BT"
           id="path3755" />
        <path
           d="m 387.33965,639.54738 0,3.47844 c 0,0.55768 0.0865,0.94594 0.25943,1.16477 0.17648,0.21531 0.47297,0.32296 0.88946,0.32296 0.55062,0 0.96712,-0.16059 1.24949,-0.48179 0.28236,-0.32472 0.42355,-0.80122 0.42355,-1.42949 l 0,-3.05489 0.953,0 0,5.67033 -0.91064,0 0,-0.84711 c -0.19767,0.32826 -0.45356,0.57533 -0.76769,0.74122 -0.31414,0.1659 -0.68299,0.24884 -1.10654,0.24884 -0.39532,0 -0.73946,-0.0671 -1.03241,-0.20119 -0.29296,-0.13412 -0.51709,-0.32472 -0.67239,-0.57179 -0.0883,-0.13766 -0.15178,-0.29826 -0.1906,-0.4818 -0.0388,-0.18707 -0.0582,-0.48179 -0.0582,-0.88417 l 0,-0.27001 0,-3.40432 0.96358,0"
           style="fill:#ffffff;font-family:Swis721 BT;-inkscape-font-specification:Swis721 BT"
           id="path3757" />
        <path
           d="m 392.17346,643.37525 0.91594,0 c 0.0353,0.38473 0.17295,0.67593 0.41297,0.87358 0.24354,0.19766 0.58767,0.29649 1.03241,0.29649 0.40943,0 0.73239,-0.0794 0.96888,-0.23825 0.23648,-0.16236 0.35472,-0.38296 0.35473,-0.6618 -10e-6,-0.20825 -0.06,-0.36708 -0.18002,-0.4765 -0.11648,-0.11295 -0.3459,-0.21001 -0.68827,-0.29119 l -1.06418,-0.27531 c -0.60004,-0.14472 -1.0183,-0.33531 -1.25478,-0.5718 -0.23295,-0.24001 -0.34943,-0.58062 -0.34943,-1.02183 0,-0.5012 0.18883,-0.89828 0.5665,-1.19124 0.3812,-0.29648 0.90182,-0.44473 1.56186,-0.44473 0.67415,0 1.21065,0.15707 1.6095,0.4712 0.39885,0.31414 0.59827,0.73593 0.59827,1.26537 l 0,0.0212 -0.92652,0 c -0.0212,-0.30002 -0.14472,-0.53121 -0.37061,-0.69357 -0.22237,-0.16589 -0.52592,-0.24884 -0.91064,-0.24884 -0.38473,0 -0.67769,0.0671 -0.87888,0.20119 -0.19766,0.13413 -0.29649,0.33002 -0.29648,0.58768 -1e-5,0.18354 0.0618,0.32826 0.1853,0.43414 0.12706,0.10236 0.36178,0.19237 0.70416,0.27002 l 0.92123,0.21707 c 0.6565,0.1553 1.10829,0.35473 1.35537,0.59827 0.24707,0.24001 0.37061,0.58415 0.37061,1.03241 0,0.58945 -0.20825,1.0483 -0.62474,1.37655 -0.41297,0.32473 -0.99183,0.48709 -1.73657,0.48709 -0.72711,0 -1.28655,-0.17295 -1.67834,-0.51886 -0.38825,-0.3459 -0.58768,-0.84534 -0.59827,-1.49832"
           style="fill:#ffffff;font-family:Swis721 BT;-inkscape-font-specification:Swis721 BT"
           id="path3759" />
        <path
           d="m 404.66831,641.4322 c -0.0282,-0.38826 -0.16943,-0.68651 -0.42355,-0.89476 -0.25061,-0.21177 -0.59475,-0.31766 -1.03242,-0.31767 -0.51532,10e-6 -0.91417,0.18531 -1.19654,0.55592 -0.27884,0.37061 -0.41826,0.90006 -0.41826,1.58833 0,0.6918 0.13413,1.22478 0.40238,1.59891 0.27178,0.37414 0.65474,0.56121 1.14889,0.56121 0.44473,0 0.79945,-0.11471 1.06418,-0.34414 0.26825,-0.22942 0.43414,-0.56297 0.49768,-1.00064 l 0.91064,0 c -0.0494,0.69533 -0.29473,1.23889 -0.73593,1.63068 -0.44121,0.38826 -1.03418,0.58239 -1.77893,0.58239 -0.77651,0 -1.38714,-0.26649 -1.83187,-0.79946 -0.4412,-0.53297 -0.6618,-1.2636 -0.6618,-2.19189 0,-0.94947 0.23119,-1.69245 0.69357,-2.22896 0.46238,-0.54002 1.09771,-0.81004 1.90599,-0.81004 0.71298,0 1.28301,0.18707 1.7101,0.56121 0.43061,0.37061 0.66004,0.87358 0.68828,1.50891 l -0.94241,0"
           style="fill:#ffffff;font-family:Swis721 BT;-inkscape-font-specification:Swis721 BT"
           id="path3761" />
        <path
           d="m 407.28376,642.37461 c -10e-6,0.70239 0.15,1.24066 0.45002,1.6148 0.30355,0.37061 0.73592,0.55591 1.29714,0.55591 0.55767,0 0.98476,-0.1853 1.28125,-0.55591 0.29648,-0.37414 0.44472,-0.91241 0.44473,-1.6148 -10e-6,-0.69886 -0.14825,-1.2336 -0.44473,-1.60422 -0.29649,-0.37413 -0.72358,-0.5612 -1.28125,-0.5612 -0.56474,0 -0.99712,0.18531 -1.29714,0.55591 -0.30002,0.37061 -0.45003,0.90712 -0.45002,1.60951 m -0.97418,0 c 0,-0.94947 0.23649,-1.68892 0.70945,-2.21837 0.4765,-0.52944 1.1436,-0.79416 2.0013,-0.79416 0.86122,0 1.53008,0.26472 2.00659,0.79416 0.47649,0.52592 0.71474,1.26537 0.71474,2.21837 0,0.95299 -0.23825,1.69421 -0.71474,2.22365 -0.47298,0.52945 -1.13831,0.79417 -1.996,0.79417 -0.86123,0 -1.53009,-0.26296 -2.00659,-0.78887 -0.4765,-0.52944 -0.71475,-1.27243 -0.71475,-2.22895"
           style="fill:#ffffff;font-family:Swis721 BT;-inkscape-font-specification:Swis721 BT"
           id="path3763" />
        <path
           d="m 416.68666,645.21771 0,-3.48902 c -1e-5,-0.55768 -0.0865,-0.94241 -0.25943,-1.15419 -0.16943,-0.2153 -0.46238,-0.32295 -0.87888,-0.32296 -0.53297,10e-6 -0.9477,0.15178 -1.24419,0.45532 -0.29296,0.30002 -0.43943,0.72711 -0.43943,1.28125 l 0,3.2296 -0.953,0 0,-5.67033 0.91064,0 0,0.82593 c 0.21884,-0.32825 0.47826,-0.57179 0.77828,-0.73063 0.30002,-0.15883 0.64768,-0.23824 1.043,-0.23825 0.42708,10e-6 0.7871,0.0653 1.08007,0.1959 0.29295,0.12707 0.51885,0.31943 0.67768,0.57709 0.0882,0.13766 0.15177,0.30002 0.1906,0.48709 0.0388,0.18354 0.0582,0.4765 0.0582,0.87887 l 0,0.27002 0,3.40431 -0.96358,0"
           style="fill:#ffffff;font-family:Swis721 BT;-inkscape-font-specification:Swis721 BT"
           id="path3765" />
        <path
           d="m 420.19157,643.78822 c -1e-5,0.25413 0.0353,0.42355 0.10588,0.50826 0.0741,0.0847 0.20825,0.12707 0.40238,0.12707 0.0565,0 0.12354,-0.002 0.20119,-0.005 0.0812,-0.004 0.1853,-0.0106 0.31237,-0.0212 l 0,0.81004 c -0.15884,0.0282 -0.30178,0.0494 -0.42885,0.0635 -0.12354,0.0141 -0.23472,0.0212 -0.33355,0.0212 -0.44826,0 -0.7624,-0.0865 -0.9424,-0.25942 -0.18002,-0.17295 -0.27002,-0.48003 -0.27002,-0.92123 l 0,-3.80669 -0.84711,0 0,-0.75711 0.84711,0 0,-1.58303 0.953,0 0,1.58303 1.02182,0 0,0.75711 -1.02182,0 0,3.48373"
           style="fill:#ffffff;font-family:Swis721 BT;-inkscape-font-specification:Swis721 BT"
           id="path3767" />
        <path
           d="m 422.12403,645.21771 0,-5.67033 0.92123,0 0,1.01653 c 0.15177,-0.38119 0.35649,-0.66533 0.61415,-0.8524 0.26119,-0.19059 0.58062,-0.28589 0.95829,-0.2859 0.0706,10e-6 0.12177,0.002 0.15354,0.005 0.0318,1e-5 0.0635,0.004 0.0953,0.0106 l 0,1.00594 c -0.0247,-0.004 -0.053,-0.005 -0.0847,-0.005 -0.0318,-0.004 -0.0794,-0.005 -0.14295,-0.005 -0.50827,0 -0.89652,0.13942 -1.16477,0.41826 -0.26473,0.27531 -0.39709,0.67769 -0.39708,1.20712 l 0,3.15548 -0.953,0"
           style="fill:#ffffff;font-family:Swis721 BT;-inkscape-font-specification:Swis721 BT"
           id="path3769" />
        <path
           d="m 425.72424,638.50438 0,-1.08536 0.953,0 0,1.08536 -0.953,0 m 0,6.71333 0,-5.67033 0.953,0 0,5.67033 -0.953,0"
           style="fill:#ffffff;font-family:Swis721 BT;-inkscape-font-specification:Swis721 BT"
           id="path3771" />
        <path
           d="m 429.05973,642.34284 c 0,0.70592 0.14471,1.24949 0.43414,1.63068 0.28943,0.3812 0.70239,0.5718 1.2389,0.5718 0.52238,0 0.93358,-0.1853 1.2336,-0.55591 0.30354,-0.37061 0.45531,-0.87888 0.45532,-1.5248 -1e-5,-0.71651 -0.14648,-1.26889 -0.43944,-1.65715 -0.28943,-0.39179 -0.7024,-0.58768 -1.23889,-0.58769 -0.56122,10e-6 -0.983,0.17825 -1.26537,0.53474 -0.27884,0.35297 -0.41826,0.88241 -0.41826,1.58833 m -0.90005,2.87487 0,-7.79869 0.93182,0 0,2.91723 c 0.21883,-0.32119 0.48179,-0.56297 0.78886,-0.72533 0.31061,-0.16589 0.66004,-0.24884 1.0483,-0.24884 0.75181,0 1.35537,0.27531 1.81069,0.82593 0.45532,0.55062 0.68298,1.28831 0.68299,2.21307 -1e-5,0.91064 -0.22591,1.63774 -0.67769,2.1813 -0.44827,0.54003 -1.05007,0.81005 -1.8054,0.81005 -0.39885,0 -0.74828,-0.0724 -1.0483,-0.21707 -0.29649,-0.14472 -0.56297,-0.36885 -0.79945,-0.6724 l 0,0.71475 -0.93182,0"
           style="fill:#ffffff;font-family:Swis721 BT;-inkscape-font-specification:Swis721 BT"
           id="path3773" />
        <path
           d="m 435.51893,639.54738 0,3.47844 c 0,0.55768 0.0865,0.94594 0.25943,1.16477 0.17647,0.21531 0.47296,0.32296 0.88946,0.32296 0.55062,0 0.96711,-0.16059 1.24948,-0.48179 0.28237,-0.32472 0.42355,-0.80122 0.42356,-1.42949 l 0,-3.05489 0.95299,0 0,5.67033 -0.91064,0 0,-0.84711 c -0.19766,0.32826 -0.45356,0.57533 -0.76769,0.74122 -0.31414,0.1659 -0.68298,0.24884 -1.10653,0.24884 -0.39532,0 -0.73946,-0.0671 -1.03242,-0.20119 -0.29296,-0.13412 -0.51709,-0.32472 -0.67239,-0.57179 -0.0882,-0.13766 -0.15177,-0.29826 -0.1906,-0.4818 -0.0388,-0.18707 -0.0582,-0.48179 -0.0582,-0.88417 l 0,-0.27001 0,-3.40432 0.96359,0"
           style="fill:#ffffff;font-family:Swis721 BT;-inkscape-font-specification:Swis721 BT"
           id="path3775" />
        <path
           d="m 441.42221,642.37461 c 0,0.70239 0.15001,1.24066 0.45003,1.6148 0.30354,0.37061 0.73592,0.55591 1.29713,0.55591 0.55768,0 0.98476,-0.1853 1.28125,-0.55591 0.29649,-0.37414 0.44473,-0.91241 0.44473,-1.6148 0,-0.69886 -0.14824,-1.2336 -0.44473,-1.60422 -0.29649,-0.37413 -0.72357,-0.5612 -1.28125,-0.5612 -0.56474,0 -0.99712,0.18531 -1.29713,0.55591 -0.30002,0.37061 -0.45003,0.90712 -0.45003,1.60951 m -0.97417,0 c 0,-0.94947 0.23648,-1.68892 0.70945,-2.21837 0.4765,-0.52944 1.14359,-0.79416 2.00129,-0.79416 0.86122,0 1.53009,0.26472 2.00659,0.79416 0.47649,0.52592 0.71474,1.26537 0.71475,2.21837 -10e-6,0.95299 -0.23826,1.69421 -0.71475,2.22365 -0.47297,0.52945 -1.13831,0.79417 -1.996,0.79417 -0.86123,0 -1.53009,-0.26296 -2.00659,-0.78887 -0.4765,-0.52944 -0.71474,-1.27243 -0.71474,-2.22895"
           style="fill:#ffffff;font-family:Swis721 BT;-inkscape-font-specification:Swis721 BT"
           id="path3777" />
        <path
           d="m 450.82511,645.21771 0,-3.48902 c 0,-0.55768 -0.0865,-0.94241 -0.25942,-1.15419 -0.16943,-0.2153 -0.46239,-0.32295 -0.87888,-0.32296 -0.53297,10e-6 -0.9477,0.15178 -1.24419,0.45532 -0.29296,0.30002 -0.43944,0.72711 -0.43944,1.28125 l 0,3.2296 -0.95299,0 0,-5.67033 0.91064,0 0,0.82593 c 0.21883,-0.32825 0.47826,-0.57179 0.77828,-0.73063 0.30001,-0.15883 0.64768,-0.23824 1.043,-0.23825 0.42708,10e-6 0.7871,0.0653 1.08006,0.1959 0.29296,0.12707 0.51885,0.31943 0.67769,0.57709 0.0882,0.13766 0.15177,0.30002 0.1906,0.48709 0.0388,0.18354 0.0582,0.4765 0.0582,0.87887 l 0,0.27002 0,3.40431 -0.96359,0"
           style="fill:#ffffff;font-family:Swis721 BT;-inkscape-font-specification:Swis721 BT"
           id="path3779" />
        <path
           d="m 452.82641,643.37525 0.91593,0 c 0.0353,0.38473 0.17295,0.67593 0.41297,0.87358 0.24354,0.19766 0.58768,0.29649 1.03241,0.29649 0.40943,0 0.73239,-0.0794 0.96888,-0.23825 0.23648,-0.16236 0.35472,-0.38296 0.35473,-0.6618 -10e-6,-0.20825 -0.06,-0.36708 -0.18001,-0.4765 -0.11648,-0.11295 -0.34591,-0.21001 -0.68828,-0.29119 l -1.06418,-0.27531 c -0.60003,-0.14472 -1.01829,-0.33531 -1.25478,-0.5718 -0.23295,-0.24001 -0.34943,-0.58062 -0.34943,-1.02183 0,-0.5012 0.18884,-0.89828 0.5665,-1.19124 0.3812,-0.29648 0.90182,-0.44473 1.56186,-0.44473 0.67415,0 1.21066,0.15707 1.60951,0.4712 0.39884,0.31414 0.59826,0.73593 0.59827,1.26537 l 0,0.0212 -0.92653,0 c -0.0212,-0.30002 -0.14472,-0.53121 -0.37061,-0.69357 -0.22237,-0.16589 -0.52591,-0.24884 -0.91064,-0.24884 -0.38473,0 -0.67769,0.0671 -0.87887,0.20119 -0.19766,0.13413 -0.29649,0.33002 -0.29649,0.58768 0,0.18354 0.0618,0.32826 0.1853,0.43414 0.12707,0.10236 0.36179,0.19237 0.70416,0.27002 l 0.92123,0.21707 c 0.65651,0.1553 1.1083,0.35473 1.35537,0.59827 0.24707,0.24001 0.37061,0.58415 0.37061,1.03241 0,0.58945 -0.20825,1.0483 -0.62474,1.37655 -0.41297,0.32473 -0.99182,0.48709 -1.73657,0.48709 -0.7271,0 -1.28655,-0.17295 -1.67833,-0.51886 -0.38826,-0.3459 -0.58768,-0.84534 -0.59827,-1.49832"
           style="fill:#ffffff;font-family:Swis721 BT;-inkscape-font-specification:Swis721 BT"
           id="path3781" />
      </g>
    </g>
  </g>
</svg>
